<?xml version="1.0" standalone="no"?><!DOCTYPE svg PUBLIC "-//W3C//DTD SVG 1.1//EN" "http://www.w3.org/Graphics/SVG/1.1/DTD/svg11.dtd"><svg t="1608555621578" class="icon" viewBox="0 0 1024 1024" version="1.1" xmlns="http://www.w3.org/2000/svg" p-id="1416" xmlns:xlink="http://www.w3.org/1999/xlink" width="200" height="200"><defs><style type="text/css"></style></defs><path d="M765 429m-156 0a156 156 0 1 0 312 0 156 156 0 1 0-312 0Z" fill="#FFD4D4" p-id="1417"></path><path d="M875 383c-15.464 0-28 12.536-28 28v38c0 15.464 12.536 28 28 28s28-12.536 28-28v-38c0-15.463-12.536-28-28-28z" p-id="1418"></path><path d="M811 233H207c-50.729 0-92 41.271-92 92v378c0 50.729 41.271 92 92 92h604c50.729 0 92-41.271 92-92V529c0-15.464-12.536-28-28-28s-28 12.536-28 28v174c0 19.851-16.149 36-36 36H207c-19.851 0-36-16.149-36-36V374.803l272.946 272.946c17.377 17.377 40.48 26.946 65.054 26.946s47.678-9.569 65.054-26.946l280.082-280.082C859.263 373.393 866.709 377 875 377c15.464 0 28-12.536 28-28v-24c0-50.729-41.271-92-92-92zM534.455 608.151c-6.799 6.8-15.839 10.544-25.455 10.544-9.616 0-18.656-3.744-25.456-10.544L178.472 303.079C185.06 294.526 195.394 289 207 289h604c11.606 0 21.94 5.526 28.528 14.079L534.455 608.151z" p-id="1419"></path></svg>